# xmcd
#
# Track frame offsets: 
#        182
#        17252
#        29555
#        46670
#        54830
#        68102
#        79462
#        89657
#        100022
#        117295
#        128542
#        142210
#        152775
#        166540
#        180472
#        192737
#        204245
#        215187
#        228392
#        237987
#        251500
#        263037
#        275962
#        286325
#        297302
#        307192
#        320290
#
# Disc length: 4374 seconds
#
# Revision: 6
# Processed by: cddbd v1.5.2PL0 Copyright (c) Steve Scherf et al.
# Submitted via: ExactAudioCopyFreeDBPlugin 1.0
#
DISCID=8d11141b
DTITLE=Various Artist - The Cobra Records Story:  Chicago Rock and Bl
DTITLE=ues, 1956-1958
DYEAR=1993
DGENRE=Blues
TTITLE0=Otis Rush - I Can't Quit You Baby (alternate version 1)
TTITLE1=Louis Myers and The Aces - Just Wailin'
TTITLE2=Otis Rush - I Can't Quit You Baby (alternate version 2)
TTITLE3=Otis Rush - Sit Down Baby
TTITLE4=Otis Rush - I Can't Quit You Baby
TTITLE5=The Clouds - Rock and Roll Boogie
TTITLE6=Shakey Horton - Need My Baby
TTITLE7=Shakey Horton - Have a Good Time
TTITLE8=Otis Rush and His Band - My Love Will Never Die
TTITLE9=Otis Rush and His Band - Violent Love
TTITLE10=Sunnyland Slim - Highway 61
TTITLE11=Sunnyland Slim - It's You Baby
TTITLE12=Otis Rush - Groaning the Blues
TTITLE13=Otis Rush - If You Were Mine
TTITLE14=Little Willie Foster - Crying the Blues
TTITLE15=Little Willie Foster - Little Girl
TTITLE16=Harold Burrage - I Don't Care Who Knows
TTITLE17=Magic Sam - All Your Love
TTITLE18=Magic Sam - Love Me with a Feeling
TTITLE19=Otis Rush - Love That Woman
TTITLE20=Otis Rush - Jump Sister Bessie
TTITLE21=Harold Burrage - Satisfied
TTITLE22=Betty Everett - My Love
TTITLE23=Duke Jenkins and His Orchestra - Shake It (alternate version)
TTITLE24=Magic Sam - Look Whatcha Done
TTITLE25=Magic Sam - Everything Gonna Be Alright
TTITLE26=Sunnyland Slim - Eli Toscano Blues (session outtake)
EXTD=
EXTT0=
EXTT1=
EXTT2=
EXTT3=
EXTT4=
EXTT5=
EXTT6=
EXTT7=
EXTT8=
EXTT9=
EXTT10=
EXTT11=
EXTT12=
EXTT13=
EXTT14=
EXTT15=
EXTT16=
EXTT17=
EXTT18=
EXTT19=
EXTT20=
EXTT21=
EXTT22=
EXTT23=
EXTT24=
EXTT25=
EXTT26=
PLAYORDER=
